<?xml version="1.0" encoding="UTF-8" standalone="no"?>
<!-- Generator: Adobe Illustrator 23.0.1, SVG Export Plug-In . SVG Version: 6.00 Build 0)  -->

<svg
   xmlns:dc="http://purl.org/dc/elements/1.1/"
   xmlns:cc="http://creativecommons.org/ns#"
   xmlns:rdf="http://www.w3.org/1999/02/22-rdf-syntax-ns#"
   xmlns:svg="http://www.w3.org/2000/svg"
   xmlns="http://www.w3.org/2000/svg"
   xmlns:sodipodi="http://sodipodi.sourceforge.net/DTD/sodipodi-0.dtd"
   xmlns:inkscape="http://www.inkscape.org/namespaces/inkscape"
   version="1.1"
   id="Слой_1"
   x="0px"
   y="0px"
   viewBox="0 0 158.00001 158"
   xml:space="preserve"
   sodipodi:docname="logo-2.svg"
   width="158"
   height="158"
   inkscape:version="0.92.3 (2405546, 2018-03-11)"><metadata
   id="metadata65"><rdf:RDF><cc:Work
       rdf:about=""><dc:format>image/svg+xml</dc:format><dc:type
         rdf:resource="http://purl.org/dc/dcmitype/StillImage" /><dc:title></dc:title></cc:Work></rdf:RDF></metadata><sodipodi:namedview
   pagecolor="#ffffff"
   bordercolor="#666666"
   borderopacity="1"
   objecttolerance="10"
   gridtolerance="10"
   guidetolerance="10"
   inkscape:pageopacity="0"
   inkscape:pageshadow="2"
   inkscape:window-width="1366"
   inkscape:window-height="708"
   id="namedview63"
   showgrid="false"
   inkscape:zoom="2.7420678"
   inkscape:cx="67.502432"
   inkscape:cy="87.102115"
   inkscape:window-x="0"
   inkscape:window-y="0"
   inkscape:window-maximized="1"
   inkscape:current-layer="Слой_1" />
<style
   type="text/css"
   id="style2">
	.st0{fill:#172B47;}
	.st1{fill:#D3E7F4;}
	.st2{filter:url(#Adobe_OpacityMaskFilter);}
	.st3{fill:#FFFFFF;}
	.st4{mask:url(#SVGID_1_);}
	.st5{fill:#4532A0;}
	.st6{fill:#FF277F;}
	.st7{fill:#6042F4;}
	.st8{fill:#004FC1;}
	.st9{fill:#3399FF;}
</style>

<polygon
   class="st1"
   points="354.87,8.32 34.35,8.32 34.35,54.87 26.03,54.87 26.03,0 363.19,0 363.19,197.84 26.03,197.84 26.03,144.41 34.35,144.41 34.35,189.52 354.87,189.52 "
   id="polygon18"
   transform="matrix(0.45675644,0,0,0.53877134,-9.8598655,25.754122)"
   style="fill:#d3e7f4" />
<defs
   id="defs23">
	<filter
   id="Adobe_OpacityMaskFilter"
   filterUnits="userSpaceOnUse"
   x="0"
   y="54.950001"
   width="143.39"
   height="87.949997">
		<feColorMatrix
   type="matrix"
   values="1 0 0 0 0  0 1 0 0 0  0 0 1 0 0  0 0 0 1 0"
   id="feColorMatrix20" />
	</filter>
</defs>
<mask
   maskUnits="userSpaceOnUse"
   x="0"
   y="54.95"
   width="143.39"
   height="87.95"
   id="SVGID_1_">
	<g
   class="st2"
   id="g47"
   style="filter:url(#Adobe_OpacityMaskFilter)">
		<rect
   x="-52.200001"
   y="50.009998"
   class="st3"
   width="222.47"
   height="98.230003"
   id="rect25"
   style="fill:#ffffff" />
		<rect
   x="120.75"
   y="66.610001"
   width="19.5"
   height="14.72"
   id="rect27" />
		<rect
   x="94.160004"
   y="74.809998"
   width="19.5"
   height="14.72"
   id="rect29" />
		<rect
   x="51.759998"
   y="67.449997"
   width="19.5"
   height="14.72"
   id="rect31" />
		<rect
   x="30.17"
   y="107.96"
   width="19.5"
   height="14.72"
   id="rect33" />
		<rect
   x="-26.940001"
   y="86.709999"
   width="65.139999"
   height="61.529999"
   id="rect35" />
		<rect
   x="63.900002"
   y="89.519997"
   width="19.5"
   height="14.72"
   id="rect37" />
		<rect
   x="73.650002"
   y="113.15"
   width="19.5"
   height="14.72"
   id="rect39" />
		<rect
   x="105.7"
   y="93.239998"
   width="21.5"
   height="14.72"
   id="rect41" />
		<rect
   x="93.160004"
   y="119.87"
   width="21.5"
   height="14.72"
   id="rect43" />
		<rect
   x="35.75"
   y="118.63"
   width="9.2399998"
   height="14.61"
   id="rect45" />
	</g>
</mask>
<g
   class="st4"
   mask="url(#SVGID_1_)"
   id="g60"
   transform="matrix(0.80162016,0,0,0.80925911,8.786224,-0.206871)">
	<polygon
   class="st5"
   points="143.39,54.95 100.3,142.75 91.04,142.75 134.12,54.95 "
   id="polygon50"
   style="fill:#4532a0" />
	<polygon
   class="st6"
   points="120.63,54.95 77.54,142.75 68.28,142.75 111.37,54.95 "
   id="polygon52"
   style="fill:#ff277f" />
	<polygon
   class="st7"
   points="97.87,54.95 54.78,142.75 45.52,142.75 88.61,54.95 "
   id="polygon54"
   style="fill:#6042f4" />
	<polygon
   class="st8"
   points="75.11,54.95 32.02,142.75 22.76,142.75 65.85,54.95 "
   id="polygon56"
   style="fill:#004fc1" />
	<polygon
   class="st9"
   points="52.35,55.1 9.27,142.9 0,142.9 43.09,55.1 "
   id="polygon58"
   style="fill:#3399ff" />
</g>
</svg>